<?xml version="1.0" encoding="UTF-8"?>
<svg version="1.1" xmlns="http://www.w3.org/2000/svg" width="512" height="512">
<path d="M0 0 C1.86785156 0.61294922 1.86785156 0.61294922 3.7734375 1.23828125 C39.29452891 13.37183222 67.9216679 40.59258537 84.90039062 73.72363281 C99.5663108 104.08443205 104.56960739 141.34130633 95 174 C94.5973291 175.38179443 94.5973291 175.38179443 94.18652344 176.79150391 C84.03687028 210.70798055 67.42843241 241.94359368 49 272 C48.44779785 272.90153809 47.8955957 273.80307617 47.32666016 274.73193359 C39.92989806 286.74906261 32.05845786 298.41892308 24 310 C23.51063965 310.70833984 23.0212793 311.41667969 22.51708984 312.14648438 C14.61451004 323.5818249 6.27238236 334.65438069 -2.20654297 345.66748047 C-3.73892692 347.66045573 -5.26453566 349.65820448 -6.78515625 351.66015625 C-33.58954451 386.83274377 -33.58954451 386.83274377 -40.33203125 388.6171875 C-46.77195108 389.2865335 -51.30411066 388.93683138 -56.59765625 384.73046875 C-61.6872739 379.97775251 -65.81011468 374.28965117 -70.0546875 368.79296875 C-72.44115187 365.70418392 -74.87931956 362.66231204 -77.33886719 359.6315918 C-84.27514534 351.06926434 -90.82192836 342.24255517 -97.30029297 333.33056641 C-98.85754811 331.19532401 -100.42804862 329.07074649 -102.00390625 326.94921875 C-119.01050858 303.91612697 -134.70815362 279.80268529 -149 255 C-149.46792969 254.19111328 -149.93585938 253.38222656 -150.41796875 252.54882812 C-153.37276276 247.41476521 -156.2214882 242.23139053 -159 237 C-159.43231934 236.19127441 -159.86463867 235.38254883 -160.31005859 234.54931641 C-171.13580455 214.13182719 -180.43285036 192.4800093 -186 170 C-186.31582031 168.85917969 -186.63164062 167.71835938 -186.95703125 166.54296875 C-191.46832371 147.52962201 -190.92217907 123.89481641 -186 105 C-185.75056641 103.98873047 -185.75056641 103.98873047 -185.49609375 102.95703125 C-180.04711724 81.12076243 -169.75374445 61.01908316 -155 44 C-154.30390625 43.18273437 -153.6078125 42.36546875 -152.890625 41.5234375 C-128.2672387 13.32005532 -93.44187938 -3.90488875 -56.16650391 -6.85498047 C-37.23167003 -8.12242371 -17.99406557 -6.17360798 0 0 Z M-86.6875 96.125 C-98.72216188 109.02754615 -103.48703049 124.43464346 -103.20703125 141.64453125 C-102.66301979 157.06708937 -95.1547648 170.57698777 -84 181 C-72.03548441 191.21931557 -58.10418712 196.63711968 -42.33984375 196.3125 C-25.36013684 194.72375549 -11.40948335 187.71063914 0 175 C10.65868724 161.06319133 14.55380541 146.36606048 13 129 C10.42458304 114.04099132 2.48555423 100.30316356 -9.59765625 91 C-34.41916388 74.42851864 -64.19431792 75.5656209 -86.6875 96.125 Z " fill="#000000" transform="translate(301,33)"/>
<path d="M0 0 C4.25587496 3.17104409 6.51525456 6.35826368 8.1875 11.375 C8.75323306 17.14547719 7.73249086 21.77788618 4.1875 26.375 C-0.75910094 30.34154116 -6.16687632 32.0606693 -12.125 34.0625 C-26.67054229 39.16721674 -43.80537515 45.75646712 -53.4375 58.5 C-55.08787066 61.95077502 -55.4926673 63.59629279 -54.8125 67.375 C-50.60743297 78.89003819 -35.92149106 85.49169731 -25.40234375 90.40234375 C2.92038404 102.93126477 33.63151066 107.32893356 64.1875 110.375 C65.03248047 110.46120605 65.87746094 110.54741211 66.74804688 110.63623047 C71.55913049 111.10020407 76.35745025 111.29680604 81.1875 111.375 C82.35764648 111.39546387 83.52779297 111.41592773 84.73339844 111.43701172 C135.56283883 112.22777221 206.01576743 111.24257857 246 74.8125 C249.01787161 71.44972877 250.95047959 68.96642277 251.625 64.4375 C250.59482145 57.22625017 245.44415535 53.53758351 239.94140625 49.31640625 C229.67443508 42.07855565 217.56342233 36.95706732 205.74609375 32.7734375 C205.02446045 32.51626953 204.30282715 32.25910156 203.55932617 31.99414062 C202.18320467 31.51152431 200.80197472 31.04314546 199.4152832 30.59179688 C193.99874925 28.70391099 191.5594505 25.98170595 188.9375 21 C187.2199791 14.98867686 188.04825568 10.53005344 190.9765625 5.171875 C193.40187859 1.57301887 196.12848728 -0.27199576 200.1875 -1.625 C206.45539398 -2.216825 211.7475138 -1.23064561 217.625 0.875 C218.39505371 1.14344727 219.16510742 1.41189453 219.95849609 1.68847656 C242.77993069 9.83468611 267.78579256 21.30827475 280.1875 43.375 C285.51315294 54.69609658 287.32713883 66.48942718 283.625 78.6875 C281.37454464 84.60389147 278.098895 89.4361083 274.1875 94.375 C273.73761719 94.98859375 273.28773438 95.6021875 272.82421875 96.234375 C260.4806061 112.10993582 238.52706144 120.82928137 220.1875 127.375 C218.92317139 127.82721924 218.92317139 127.82721924 217.63330078 128.28857422 C190.2562207 137.83435847 160.99200673 142.1599953 132.1875 144.375 C130.96667725 144.47868896 130.96667725 144.47868896 129.72119141 144.58447266 C65.81476957 149.95607032 -19.9768114 145.14458013 -71.25 102.0625 C-81.9218971 91.84051424 -88.80963592 79.83901608 -89.3125 64.875 C-88.84523781 50.10348565 -82.14817087 37.71093602 -71.50390625 27.625 C-56.96965879 15.4744535 -19.24211075 -9.99428597 0 0 Z " fill="#000000" transform="translate(157.8125,340.625)"/>
</svg>
